<svg viewBox="0 0 36 24" fill="none" xmlns="http://www.w3.org/2000/svg">
  <path fill-rule="evenodd" clip-rule="evenodd"
    d="M0.781013 8.67382L6.1464 19.7502C7.57754 22.7046 10.6365 24.1931 12.9788 23.0747C13.0123 23.0587 13.0456 23.0422 13.0786 23.0252L13.1728 22.9767C15.4997 21.7787 16.2053 18.444 14.7622 15.4649L9.39682 4.38853C7.96568 1.43407 4.90672 -0.0543648 2.56445 1.06401C2.53092 1.08002 2.49764 1.09653 2.46461 1.11354L2.37046 1.16201C0.0435144 2.36005 -0.662073 5.6947 0.781013 8.67382Z"
    fill="#12D2AC" />
  <path fill-rule="evenodd" clip-rule="evenodd"
    d="M16.7089 19.7539L22.0961 8.83724C23.5939 5.80198 22.8975 2.38711 20.5272 1.14471C18.2283 -0.0602989 15.1424 1.32684 13.6347 4.24298C13.6132 4.28472 13.592 4.32666 13.5712 4.3688L8.18403 15.2854C6.68618 18.3207 7.38264 21.7356 9.7529 22.978C12.0518 24.183 15.1377 22.7958 16.6454 19.8797C16.6669 19.8379 16.6881 19.796 16.7089 19.7539Z"
    fill="#307AF2" />
  <path fill-rule="evenodd" clip-rule="evenodd"
    d="M28.8842 19.7552L34.3082 8.85682C35.8162 5.82664 35.1313 2.40944 32.7652 1.15905C30.4704 -0.0537025 27.3799 1.32303 25.8624 4.23407C25.8406 4.27573 25.8193 4.3176 25.7984 4.35967L20.3745 15.2581C18.8664 18.2883 19.5513 21.7055 21.9174 22.9558C24.2122 24.1686 27.3027 22.7919 28.8203 19.8808C28.842 19.8392 28.8633 19.7973 28.8842 19.7552Z"
    fill="#307AF2" />
</svg>