<svg viewBox="0 0 142 20" fill="none" xmlns="http://www.w3.org/2000/svg">
  <path
    d="M0.835117 10.6C0.835117 8.952 1.20312 7.48 1.93912 6.184C2.69112 4.872 3.70712 3.856 4.98712 3.136C6.28312 2.4 7.73112 2.032 9.33112 2.032C11.2031 2.032 12.8431 2.512 14.2511 3.472C15.6591 4.432 16.6431 5.76 17.2031 7.456H13.3391C12.9551 6.656 12.4111 6.056 11.7071 5.656C11.0191 5.256 10.2191 5.056 9.30712 5.056C8.33112 5.056 7.45912 5.288 6.69112 5.752C5.93912 6.2 5.34712 6.84 4.91512 7.672C4.49912 8.504 4.29112 9.48 4.29112 10.6C4.29112 11.704 4.49912 12.68 4.91512 13.528C5.34712 14.36 5.93912 15.008 6.69112 15.472C7.45912 15.92 8.33112 16.144 9.30712 16.144C10.2191 16.144 11.0191 15.944 11.7071 15.544C12.4111 15.128 12.9551 14.52 13.3391 13.72H17.2031C16.6431 15.432 15.6591 16.768 14.2511 17.728C12.8591 18.672 11.2191 19.144 9.33112 19.144C7.73112 19.144 6.28312 18.784 4.98712 18.064C3.70712 17.328 2.69112 16.312 1.93912 15.016C1.20312 13.72 0.835117 12.248 0.835117 10.6ZM23.433 7.768C23.865 7.064 24.425 6.512 25.113 6.112C25.817 5.712 26.617 5.512 27.513 5.512V9.04H26.625C25.569 9.04 24.769 9.288 24.225 9.784C23.697 10.28 23.433 11.144 23.433 12.376V19H20.073V5.704H23.433V7.768ZM42.1361 12.064C42.1361 12.544 42.1041 12.976 42.0401 13.36H32.3201C32.4001 14.32 32.7361 15.072 33.3281 15.616C33.9201 16.16 34.6481 16.432 35.5121 16.432C36.7601 16.432 37.6481 15.896 38.1761 14.824H41.8001C41.4161 16.104 40.6801 17.16 39.5921 17.992C38.5041 18.808 37.1681 19.216 35.5841 19.216C34.3041 19.216 33.1521 18.936 32.1281 18.376C31.1201 17.8 30.3281 16.992 29.7521 15.952C29.1921 14.912 28.9121 13.712 28.9121 12.352C28.9121 10.976 29.1921 9.768 29.7521 8.728C30.3121 7.688 31.0961 6.888 32.1041 6.328C33.1121 5.768 34.2721 5.488 35.5841 5.488C36.8481 5.488 37.9761 5.76 38.9681 6.304C39.9761 6.848 40.7521 7.624 41.2961 8.632C41.8561 9.624 42.1361 10.768 42.1361 12.064ZM38.6561 11.104C38.6401 10.24 38.3281 9.552 37.7201 9.04C37.1121 8.512 36.3681 8.248 35.4881 8.248C34.6561 8.248 33.9521 8.504 33.3761 9.016C32.8161 9.512 32.4721 10.208 32.3441 11.104H38.6561ZM43.7246 12.304C43.7246 10.96 43.9886 9.768 44.5166 8.728C45.0606 7.688 45.7886 6.888 46.7006 6.328C47.6286 5.768 48.6606 5.488 49.7966 5.488C50.7886 5.488 51.6526 5.688 52.3886 6.088C53.1406 6.488 53.7406 6.992 54.1886 7.6V5.704H57.5726V19H54.1886V17.056C53.7566 17.68 53.1566 18.2 52.3886 18.616C51.6366 19.016 50.7646 19.216 49.7726 19.216C48.6526 19.216 47.6286 18.928 46.7006 18.352C45.7886 17.776 45.0606 16.968 44.5166 15.928C43.9886 14.872 43.7246 13.664 43.7246 12.304ZM54.1886 12.352C54.1886 11.536 54.0286 10.84 53.7086 10.264C53.3886 9.672 52.9566 9.224 52.4126 8.92C51.8686 8.6 51.2846 8.44 50.6606 8.44C50.0366 8.44 49.4606 8.592 48.9326 8.896C48.4046 9.2 47.9726 9.648 47.6366 10.24C47.3166 10.816 47.1566 11.504 47.1566 12.304C47.1566 13.104 47.3166 13.808 47.6366 14.416C47.9726 15.008 48.4046 15.464 48.9326 15.784C49.4766 16.104 50.0526 16.264 50.6606 16.264C51.2846 16.264 51.8686 16.112 52.4126 15.808C52.9566 15.488 53.3886 15.04 53.7086 14.464C54.0286 13.872 54.1886 13.168 54.1886 12.352ZM64.7662 8.464V14.896C64.7662 15.344 64.8702 15.672 65.0782 15.88C65.3022 16.072 65.6702 16.168 66.1822 16.168H67.7422V19H65.6302C62.7982 19 61.3822 17.624 61.3822 14.872V8.464H59.7982V5.704H61.3822V2.416H64.7662V5.704H67.7422V8.464H64.7662ZM82.5189 12.064C82.5189 12.544 82.4869 12.976 82.4229 13.36H72.7029C72.7829 14.32 73.1189 15.072 73.7109 15.616C74.3029 16.16 75.0309 16.432 75.8949 16.432C77.1429 16.432 78.0309 15.896 78.5589 14.824H82.1829C81.7989 16.104 81.0629 17.16 79.9749 17.992C78.8869 18.808 77.5509 19.216 75.9669 19.216C74.6869 19.216 73.5349 18.936 72.5109 18.376C71.5029 17.8 70.7109 16.992 70.1349 15.952C69.5749 14.912 69.2949 13.712 69.2949 12.352C69.2949 10.976 69.5749 9.768 70.1349 8.728C70.6949 7.688 71.4789 6.888 72.4869 6.328C73.4949 5.768 74.6549 5.488 75.9669 5.488C77.2309 5.488 78.3589 5.76 79.3509 6.304C80.3589 6.848 81.1349 7.624 81.6789 8.632C82.2389 9.624 82.5189 10.768 82.5189 12.064ZM79.0389 11.104C79.0229 10.24 78.7109 9.552 78.1029 9.04C77.4949 8.512 76.7509 8.248 75.8709 8.248C75.0389 8.248 74.3349 8.504 73.7589 9.016C73.1989 9.512 72.8549 10.208 72.7269 11.104H79.0389ZM107.363 2.248L102.683 19H98.7234L95.5794 7.072L92.2914 19L88.3554 19.024L83.8434 2.248H87.4434L90.3954 15.256L93.8034 2.248H97.5474L100.763 15.184L103.739 2.248H107.363ZM111.261 4.12C110.669 4.12 110.173 3.936 109.773 3.568C109.389 3.184 109.197 2.712 109.197 2.152C109.197 1.592 109.389 1.128 109.773 0.759999C110.173 0.375999 110.669 0.183999 111.261 0.183999C111.853 0.183999 112.341 0.375999 112.725 0.759999C113.125 1.128 113.325 1.592 113.325 2.152C113.325 2.712 113.125 3.184 112.725 3.568C112.341 3.936 111.853 4.12 111.261 4.12ZM112.917 5.704V19H109.557V5.704H112.917ZM121.325 19.216C120.237 19.216 119.261 19.024 118.397 18.64C117.533 18.24 116.845 17.704 116.333 17.032C115.837 16.36 115.565 15.616 115.517 14.8H118.901C118.965 15.312 119.213 15.736 119.645 16.072C120.093 16.408 120.645 16.576 121.301 16.576C121.941 16.576 122.437 16.448 122.789 16.192C123.157 15.936 123.341 15.608 123.341 15.208C123.341 14.776 123.117 14.456 122.669 14.248C122.237 14.024 121.541 13.784 120.581 13.528C119.589 13.288 118.773 13.04 118.133 12.784C117.509 12.528 116.965 12.136 116.501 11.608C116.053 11.08 115.829 10.368 115.829 9.472C115.829 8.736 116.037 8.064 116.453 7.456C116.885 6.848 117.493 6.368 118.277 6.016C119.077 5.664 120.013 5.488 121.085 5.488C122.669 5.488 123.933 5.888 124.877 6.688C125.821 7.472 126.341 8.536 126.437 9.88H123.221C123.173 9.352 122.949 8.936 122.549 8.632C122.165 8.312 121.645 8.152 120.989 8.152C120.381 8.152 119.909 8.264 119.573 8.488C119.253 8.712 119.093 9.024 119.093 9.424C119.093 9.872 119.317 10.216 119.765 10.456C120.213 10.68 120.909 10.912 121.853 11.152C122.813 11.392 123.605 11.64 124.229 11.896C124.853 12.152 125.389 12.552 125.837 13.096C126.301 13.624 126.541 14.328 126.557 15.208C126.557 15.976 126.341 16.664 125.909 17.272C125.493 17.88 124.885 18.36 124.085 18.712C123.301 19.048 122.381 19.216 121.325 19.216ZM141.675 12.064C141.675 12.544 141.643 12.976 141.579 13.36H131.859C131.939 14.32 132.275 15.072 132.867 15.616C133.459 16.16 134.187 16.432 135.051 16.432C136.299 16.432 137.187 15.896 137.715 14.824H141.339C140.955 16.104 140.219 17.16 139.131 17.992C138.043 18.808 136.707 19.216 135.123 19.216C133.843 19.216 132.691 18.936 131.667 18.376C130.659 17.8 129.867 16.992 129.291 15.952C128.731 14.912 128.451 13.712 128.451 12.352C128.451 10.976 128.731 9.768 129.291 8.728C129.851 7.688 130.635 6.888 131.643 6.328C132.651 5.768 133.811 5.488 135.123 5.488C136.387 5.488 137.515 5.76 138.507 6.304C139.515 6.848 140.291 7.624 140.835 8.632C141.395 9.624 141.675 10.768 141.675 12.064ZM138.195 11.104C138.179 10.24 137.867 9.552 137.259 9.04C136.651 8.512 135.907 8.248 135.027 8.248C134.195 8.248 133.491 8.504 132.915 9.016C132.355 9.512 132.011 10.208 131.883 11.104H138.195Z"
    fill="currentColor" />
</svg>